<?xml version="1.0" encoding="UTF-8"?>
<svg xmlns="http://www.w3.org/2000/svg" viewBox="0 0 1200 457" width="1200" height="457" role="img" aria-label="Demolidora Solum">
  <path d="M 480 312 L 479 316 L 475 322 L 475 387 L 476 390 L 478 392 L 481 400 L 484 404 L 497 416 L 505 418 L 607 418 L 612 417 L 621 411 L 628 403 L 633 395 L 635 387 L 635 332 L 634 323 L 628 311 L 619 302 L 612 297 L 602 294 L 504 294 L 493 298 Z
M 509 338 L 512 333 L 518 327 L 522 325 L 589 325 L 598 332 L 600 337 L 601 369 L 599 380 L 597 382 L 589 386 L 584 387 L 532 387 L 522 386 L 518 384 L 514 380 L 509 370 Z
M 795 295 L 794 297 L 795 381 L 800 396 L 811 410 L 821 417 L 828 418 L 920 418 L 928 415 L 936 407 L 946 390 L 946 298 L 943 294 L 940 293 L 915 293 L 911 295 L 910 297 L 911 371 L 907 381 L 903 385 L 897 388 L 844 388 L 840 386 L 831 377 L 829 372 L 829 298 L 827 294 L 825 293 L 798 293 Z
M 651 296 L 651 358 L 652 389 L 657 399 L 673 416 L 680 418 L 781 418 L 784 414 L 783 391 L 781 389 L 778 388 L 771 389 L 770 388 L 766 389 L 708 389 L 699 388 L 695 386 L 687 378 L 685 374 L 684 339 L 685 302 L 684 296 L 682 294 L 679 293 L 655 293 Z
M 314 301 L 309 312 L 309 349 L 312 358 L 318 365 L 327 370 L 416 370 L 423 374 L 424 382 L 417 388 L 309 388 L 306 391 L 306 414 L 308 417 L 447 418 L 455 413 L 458 407 L 458 357 L 456 350 L 451 344 L 443 341 L 353 341 L 350 340 L 344 333 L 345 328 L 351 324 L 449 324 L 452 319 L 452 298 L 449 294 L 331 293 L 321 295 Z
M 960 312 L 960 417 L 989 418 L 993 415 L 992 341 L 996 335 L 1000 336 L 1004 341 L 1039 409 L 1047 418 L 1075 418 L 1079 416 L 1081 409 L 1119 337 L 1124 337 L 1126 341 L 1126 415 L 1130 418 L 1158 418 L 1161 415 L 1160 318 L 1154 304 L 1146 296 L 1139 292 L 1119 291 L 1109 296 L 1103 302 L 1084 338 L 1080 342 L 1062 379 L 1059 381 L 1028 321 L 1009 296 L 999 291 L 985 291 L 972 297 Z
M 837 125 L 823 139 L 822 141 L 822 220 L 823 233 L 828 240 L 838 250 L 840 251 L 883 251 L 886 247 L 891 243 L 893 239 L 898 233 L 897 153 L 898 147 L 897 142 L 891 133 L 882 125 Z
M 854 155 L 866 155 L 870 160 L 871 214 L 870 216 L 865 220 L 857 220 L 854 219 L 851 216 L 850 198 L 850 160 L 852 156 Z
M 1014 124 L 1012 125 L 1010 128 L 1010 138 L 1007 146 L 1005 157 L 1005 163 L 1001 177 L 1000 189 L 997 206 L 993 222 L 991 240 L 989 243 L 988 248 L 989 250 L 991 251 L 1015 251 L 1019 248 L 1022 237 L 1025 233 L 1027 232 L 1037 232 L 1042 236 L 1044 246 L 1047 250 L 1049 251 L 1073 251 L 1075 249 L 1075 243 L 1073 234 L 1070 226 L 1066 199 L 1062 185 L 1062 178 L 1058 168 L 1057 163 L 1057 154 L 1052 140 L 1051 129 L 1049 126 L 1044 124 Z
M 1031 174 L 1034 178 L 1034 189 L 1039 207 L 1039 214 L 1036 217 L 1027 217 L 1024 214 L 1025 198 L 1028 186 L 1028 177 Z
M 905 126 L 904 128 L 906 215 L 906 242 L 905 243 L 905 248 L 909 251 L 935 251 L 937 250 L 938 246 L 937 213 L 940 209 L 944 209 L 949 211 L 951 213 L 951 248 L 955 251 L 981 251 L 983 249 L 983 200 L 978 193 L 978 190 L 982 187 L 983 185 L 983 144 L 981 140 L 967 126 L 963 124 L 914 124 Z
M 941 158 L 949 159 L 952 162 L 952 176 L 949 180 L 946 181 L 939 181 L 936 177 L 936 161 L 938 159 Z
M 700 127 L 702 249 L 704 251 L 730 251 L 736 248 L 742 251 L 796 251 L 800 249 L 815 232 L 816 226 L 814 151 L 815 146 L 814 143 L 800 127 L 797 125 L 742 124 L 736 127 L 733 127 L 730 125 L 704 124 Z
M 735 181 L 737 202 L 734 227 Z
M 773 154 L 779 154 L 784 158 L 785 215 L 784 217 L 779 221 L 774 221 L 769 219 L 767 214 L 767 157 L 769 155 Z
M 635 124 L 633 125 L 631 128 L 633 179 L 632 233 L 633 250 L 635 251 L 691 251 L 695 248 L 694 223 L 693 221 L 690 219 L 686 218 L 669 219 L 665 214 L 666 189 L 665 128 L 664 126 L 661 124 Z
M 564 125 L 554 134 L 550 139 L 548 144 L 548 229 L 549 232 L 552 237 L 559 245 L 566 251 L 608 251 L 616 245 L 621 239 L 625 232 L 625 173 L 624 144 L 623 141 L 618 134 L 609 125 L 571 124 Z
M 582 154 L 593 155 L 596 159 L 597 196 L 596 207 L 597 215 L 594 219 L 591 220 L 582 220 L 578 217 L 577 214 L 578 207 L 577 158 L 578 156 Z
M 436 126 L 435 128 L 436 187 L 439 250 L 441 251 L 464 251 L 466 250 L 467 230 L 470 225 L 472 227 L 475 234 L 477 248 L 481 251 L 496 251 L 501 246 L 505 226 L 509 222 L 509 220 L 511 218 L 512 222 L 512 250 L 514 251 L 539 251 L 543 248 L 541 199 L 542 184 L 542 130 L 541 127 L 539 125 L 533 124 L 500 125 L 498 127 L 496 132 L 492 155 L 488 160 L 486 158 L 485 151 L 481 142 L 479 130 L 476 126 L 471 124 Z
M 423 125 L 416 124 L 362 125 L 360 126 L 360 128 L 359 129 L 360 248 L 364 251 L 424 251 L 426 250 L 427 221 L 426 219 L 424 218 L 396 218 L 392 213 L 392 208 L 393 206 L 397 203 L 422 204 L 426 201 L 427 198 L 427 177 L 426 173 L 424 171 L 419 170 L 404 170 L 396 171 L 394 170 L 392 167 L 392 161 L 397 157 L 414 157 L 423 158 L 426 154 L 426 128 L 425 126 Z
M 144 24 L 155 42 L 148 50 L 152 89 L 186 122 L 194 179 L 195 265 L 191 268 L 176 249 L 87 157 L 50 126 L 46 127 L 49 220 L 144 289 L 152 299 L 160 319 L 153 317 L 50 241 L 47 244 L 48 256 L 59 268 L 170 348 L 176 355 L 177 369 L 185 375 L 191 375 L 210 356 L 265 321 L 288 319 L 295 311 L 303 293 L 331 274 L 332 261 L 328 247 L 337 237 L 346 216 L 348 184 L 342 163 L 331 144 L 296 108 L 266 91 L 210 66 L 185 47 Z
M 276 132 L 284 138 L 287 139 L 293 144 L 294 146 L 307 158 L 313 167 L 314 173 L 317 177 L 319 183 L 319 195 L 318 201 L 314 207 L 314 210 L 311 217 L 306 225 L 296 237 L 285 247 L 283 250 L 281 251 L 276 250 L 275 248 L 276 238 L 274 206 L 274 161 L 273 134 Z" fill="#000000" fill-rule="evenodd"/>
</svg>
